<svg xmlns="http://www.w3.org/2000/svg" width="660" height="760" viewBox="0 0 660 760">
<rect width="100%" height="100%" fill="white"/>
<text x="24" y="28" font-family="Arial" font-size="20" font-weight="bold" fill="#18324A">Code modules and supporting artifacts</text>
<path d="M155.0,125 L305.0,180 M297.03882107640703,180.7871658951829 L305.0,180 L299.43464359387053,174.25310448391886" fill="none" stroke="#6A8194" stroke-width="1.5"/>
<path d="M455.0,125 L305.0,180 M310.56535640612947,174.25310448391886 L305.0,180 L312.96117892359297,180.7871658951829" fill="none" stroke="#6A8194" stroke-width="1.5"/>
<path d="M155.0,125 L155.0,300 M151.52027572711015,292.79642318117857 L155.0,300 L158.47972427288985,292.79642318117857" fill="none" stroke="#6A8194" stroke-width="1.5"/>
<path d="M455.0,300 L305.0,240 M312.9806903185114,239.44449838882494 L305.0,240 L310.3960160160427,245.9061841449967" fill="none" stroke="#6A8194" stroke-width="1.5"/>
<path d="M155.0,420 L155.0,360 M158.47972427288985,367.20357681882143 L155.0,360 L151.52027572711015,367.20357681882143" fill="none" stroke="#6A8194" stroke-width="1.5"/>
<path d="M455.0,420 L455.0,360 M458.4797242728898,367.20357681882143 L455.0,360 L451.5202757271102,367.20357681882143" fill="none" stroke="#6A8194" stroke-width="1.5"/>
<path d="M305.0,535 L155.0,480 M162.96117892359297,479.2128341048171 L155.0,480 L160.5653564061295,485.74689551608117" fill="none" stroke="#6A8194" stroke-width="1.5"/>
<path d="M305.0,535 L455.0,480 M449.43464359387053,485.74689551608117 L455.0,480 L447.03882107640703,479.2128341048171" fill="none" stroke="#6A8194" stroke-width="1.5"/>
<rect x="65" y="65" width="180" height="60" rx="8" fill="#EDF3F8" stroke="#6A8194"/>
<text x="155.0" y="88" text-anchor="middle" font-family="Arial" font-size="12" font-weight="bold" fill="#18324A">app.py</text>
<text x="155.0" y="108" text-anchor="middle" font-family="Arial" font-size="9" fill="#425B70">Uploads, settings, chat and sources</text>
<rect x="365" y="65" width="180" height="60" rx="8" fill="#EDF3F8" stroke="#6A8194"/>
<text x="455.0" y="88" text-anchor="middle" font-family="Arial" font-size="12" font-weight="bold" fill="#18324A">cli.py</text>
<text x="455.0" y="108" text-anchor="middle" font-family="Arial" font-size="9" fill="#425B70">Index and search from the terminal</text>
<rect x="215" y="180" width="180" height="60" rx="8" fill="#EDF3F8" stroke="#6A8194"/>
<text x="305.0" y="203" text-anchor="middle" font-family="Arial" font-size="12" font-weight="bold" fill="#18324A">src/core.py</text>
<text x="305.0" y="223" text-anchor="middle" font-family="Arial" font-size="9" fill="#425B70">Extraction, chunks, vectors, search</text>
<rect x="65" y="300" width="180" height="60" rx="8" fill="#EDF3F8" stroke="#6A8194"/>
<text x="155.0" y="323" text-anchor="middle" font-family="Arial" font-size="12" font-weight="bold" fill="#18324A">src/answering.py</text>
<text x="155.0" y="343" text-anchor="middle" font-family="Arial" font-size="9" fill="#425B70">Groq request and citation validation</text>
<rect x="365" y="300" width="180" height="60" rx="8" fill="#EDF3F8" stroke="#6A8194"/>
<text x="455.0" y="323" text-anchor="middle" font-family="Arial" font-size="12" font-weight="bold" fill="#18324A">data/sample_documents</text>
<text x="455.0" y="343" text-anchor="middle" font-family="Arial" font-size="9" fill="#425B70">Three fictional demo documents</text>
<rect x="65" y="420" width="180" height="60" rx="8" fill="#EDF3F8" stroke="#6A8194"/>
<text x="155.0" y="443" text-anchor="middle" font-family="Arial" font-size="12" font-weight="bold" fill="#18324A">tests/</text>
<text x="155.0" y="463" text-anchor="middle" font-family="Arial" font-size="9" fill="#425B70">Loader, retrieval, citation and UI tests</text>
<rect x="365" y="420" width="180" height="60" rx="8" fill="#EDF3F8" stroke="#6A8194"/>
<text x="455.0" y="443" text-anchor="middle" font-family="Arial" font-size="12" font-weight="bold" fill="#18324A">evaluation/</text>
<text x="455.0" y="463" text-anchor="middle" font-family="Arial" font-size="9" fill="#425B70">Questions, results, CSV and Excel</text>
<rect x="215" y="535" width="180" height="60" rx="8" fill="#EDF3F8" stroke="#6A8194"/>
<text x="305.0" y="558" text-anchor="middle" font-family="Arial" font-size="12" font-weight="bold" fill="#18324A">docs/ + CI + Dockerfile</text>
<text x="305.0" y="578" text-anchor="middle" font-family="Arial" font-size="9" fill="#425B70">Guides, diagrams and delivery setup</text>
<text x="24" y="675" font-family="Arial" font-size="10" fill="#425B70">Arrows indicate use or verification relationships, not inheritance.</text>
<text x="24" y="695" font-family="Arial" font-size="10" fill="#425B70">Source code and sample data are separate from explanatory and evaluation artifacts.</text>
</svg>